<svg width="453" height="110" viewBox="0 0 453 110" fill="none" xmlns="http://www.w3.org/2000/svg">
<path d="M102.75 108H76.05L69.15 86.7H33.15L26.25 108H0.15L37.2 8.1H65.85L102.75 108ZM63.6 67.5L51.15 28.05L38.55 67.5H63.6ZM112.282 0.899993H135.232V37.05C141.832 29.75 150.032 26.1 159.832 26.1C170.832 26.1 179.632 30.05 186.232 37.95C192.932 45.75 196.282 55.75 196.282 67.95C196.282 80.05 192.932 90.05 186.232 97.95C179.632 105.85 170.832 109.8 159.832 109.8C150.032 109.8 141.832 106.15 135.232 98.85V108H112.282V0.899993ZM135.232 68.1C135.232 74.5 136.832 79.75 140.032 83.85C143.332 87.95 147.982 90 153.982 90C159.882 90 164.332 87.95 167.332 83.85C170.432 79.75 171.982 74.5 171.982 68.1C171.982 61.7 170.432 56.4 167.332 52.2C164.332 48 159.882 45.9 153.982 45.9C148.082 45.9 143.482 48.05 140.182 52.35C136.882 56.55 135.232 61.8 135.232 68.1ZM290.973 68.1C290.973 80.6 287.073 90.7 279.273 98.4C271.573 106 261.273 109.8 248.373 109.8C235.473 109.8 225.173 106 217.473 98.4C209.773 90.7 205.923 80.6 205.923 68.1C205.923 55.5 209.773 45.35 217.473 37.65C225.173 29.95 235.473 26.1 248.373 26.1C261.273 26.1 271.573 29.95 279.273 37.65C287.073 45.35 290.973 55.5 290.973 68.1ZM261.723 84.45C264.923 80.25 266.523 74.75 266.523 67.95C266.523 61.15 264.923 55.7 261.723 51.6C258.623 47.4 254.173 45.3 248.373 45.3C242.673 45.3 238.223 47.4 235.023 51.6C231.823 55.7 230.223 61.15 230.223 67.95C230.223 74.75 231.823 80.25 235.023 84.45C238.223 88.55 242.673 90.6 248.373 90.6C254.173 90.6 258.623 88.55 261.723 84.45ZM355.452 27.9H378.402V108H355.452V99C348.752 106.2 340.752 109.8 331.452 109.8C322.752 109.8 316.052 107.15 311.352 101.85C306.752 96.45 304.452 89.5 304.452 81V27.9H327.402V75.75C327.402 84.85 331.552 89.4 339.852 89.4C344.352 89.4 348.052 88 350.952 85.2C353.952 82.4 355.452 78.5 355.452 73.5V27.9ZM443.991 86.25L452.541 102.75C446.341 107.45 438.941 109.8 430.341 109.8C419.641 109.8 412.041 106.45 407.541 99.75C404.441 95.25 402.891 89.1 402.891 81.3V45.3H390.291V27.9H402.891V8.1H425.991V27.9H448.791V45.3H425.991V81.45C425.991 87.05 428.741 89.85 434.241 89.85C437.741 89.85 440.991 88.65 443.991 86.25Z" fill="#171819" fill-opacity="0.15"/>
</svg>
