<svg width="566" height="100" viewBox="0 0 566 100" fill="none" xmlns="http://www.w3.org/2000/svg">
<path d="M91.184 24.272L73.04 34.784C67.472 25.088 59.648 20.24 49.568 20.24C41.984 20.24 35.888 23.024 31.28 28.592C26.768 34.064 24.512 41.12 24.512 49.76C24.512 58.496 26.768 65.696 31.28 71.36C35.888 77.024 41.984 79.856 49.568 79.856C59.36 79.856 67.088 74.576 72.752 64.016L91.76 73.952C82.544 91.136 68.336 99.728 49.136 99.728C34.832 99.728 23.216 95.168 14.288 86.048C5.36 76.832 0.896 64.784 0.896 49.904C0.896 35.12 5.36 23.168 14.288 14.048C23.216 4.928 34.784 0.367995 48.992 0.367995C67.808 0.367995 81.872 8.336 91.184 24.272ZM180.975 59.696C180.975 71.696 177.231 81.392 169.743 88.784C162.351 96.08 152.463 99.728 140.079 99.728C127.695 99.728 117.807 96.08 110.415 88.784C103.023 81.392 99.3268 71.696 99.3268 59.696C99.3268 47.6 103.023 37.856 110.415 30.464C117.807 23.072 127.695 19.376 140.079 19.376C152.463 19.376 162.351 23.072 169.743 30.464C177.231 37.856 180.975 47.6 180.975 59.696ZM152.895 75.392C155.967 71.36 157.503 66.08 157.503 59.552C157.503 53.024 155.967 47.792 152.895 43.856C149.919 39.824 145.647 37.808 140.079 37.808C134.607 37.808 130.335 39.824 127.263 43.856C124.191 47.792 122.655 53.024 122.655 59.552C122.655 66.08 124.191 71.36 127.263 75.392C130.335 79.328 134.607 81.296 140.079 81.296C145.647 81.296 149.919 79.328 152.895 75.392ZM216.667 98H194.635V21.104H216.667V29.888C222.907 22.88 230.587 19.376 239.707 19.376C248.059 19.376 254.443 21.968 258.859 27.152C263.371 32.24 265.627 38.864 265.627 47.024V98H243.595V52.064C243.595 43.328 239.611 38.96 231.643 38.96C227.323 38.96 223.723 40.304 220.843 42.992C218.059 45.68 216.667 49.424 216.667 54.224V98ZM327.872 77.12L336.08 92.96C330.128 97.472 323.024 99.728 314.768 99.728C304.496 99.728 297.2 96.512 292.88 90.08C289.904 85.76 288.416 79.856 288.416 72.368V37.808H276.32V21.104H288.416V2.096H310.592V21.104H332.48V37.808H310.592V72.512C310.592 77.888 313.232 80.576 318.512 80.576C321.872 80.576 324.992 79.424 327.872 77.12ZM388.554 69.632V60.848C388.074 61.424 387.45 61.952 386.682 62.432C386.01 62.912 385.434 63.296 384.954 63.584C384.474 63.872 383.658 64.16 382.506 64.448C381.354 64.736 380.586 64.928 380.202 65.024C379.818 65.024 378.858 65.168 377.322 65.456C375.786 65.648 374.826 65.792 374.442 65.888C372.234 66.272 370.41 66.704 368.97 67.184C367.626 67.568 366.378 68.48 365.226 69.92C364.074 71.264 363.498 72.992 363.498 75.104C363.498 77.984 364.458 80.144 366.378 81.584C368.394 83.024 371.034 83.744 374.298 83.744C378.522 83.744 381.93 82.544 384.522 80.144C387.21 77.744 388.554 74.24 388.554 69.632ZM351.834 44.576L344.49 28.16C354.666 22.304 365.754 19.376 377.754 19.376C399.738 19.376 410.73 28.304 410.73 46.16V78.992C410.73 82.16 412.074 83.744 414.762 83.744C416.49 83.744 417.738 83.408 418.506 82.736L420.81 96.56C418.026 98.288 414.042 99.152 408.858 99.152C405.018 99.152 401.61 98.336 398.634 96.704C395.754 95.072 393.738 92.624 392.586 89.36C387.594 96.272 379.482 99.728 368.25 99.728C360.186 99.728 353.706 97.664 348.81 93.536C344.01 89.312 341.61 83.408 341.61 75.824C341.61 61.808 351.018 53.888 369.834 52.064C373.674 51.68 376.41 51.392 378.042 51.2C379.674 51.008 381.498 50.672 383.514 50.192C385.53 49.616 386.874 48.896 387.546 48.032C388.218 47.168 388.554 46.064 388.554 44.72C388.554 39.824 384.426 37.376 376.17 37.376C367.242 37.376 359.13 39.776 351.834 44.576ZM484.161 70.496L500.145 81.152C492.657 93.536 481.329 99.728 466.161 99.728C454.161 99.728 444.513 95.984 437.217 88.496C430.017 80.912 426.417 71.312 426.417 59.696C426.417 47.984 430.017 38.336 437.217 30.752C444.513 23.168 454.065 19.376 465.873 19.376C481.233 19.376 492.657 25.904 500.145 38.96L483.153 49.04C479.505 41.744 474.129 38.096 467.025 38.096C461.649 38.096 457.377 40.112 454.209 44.144C451.137 48.08 449.601 53.216 449.601 59.552C449.601 65.984 451.185 71.168 454.353 75.104C457.617 79.04 462.033 81.008 467.601 81.008C474.225 81.008 479.745 77.504 484.161 70.496ZM556.95 77.12L565.158 92.96C559.206 97.472 552.102 99.728 543.846 99.728C533.574 99.728 526.278 96.512 521.958 90.08C518.982 85.76 517.494 79.856 517.494 72.368V37.808H505.398V21.104H517.494V2.096H539.67V21.104H561.558V37.808H539.67V72.512C539.67 77.888 542.31 80.576 547.59 80.576C550.95 80.576 554.07 79.424 556.95 77.12Z" fill="#DCDDDD"/>
</svg>
