<svg width="1439" height="695" viewBox="0 0 1439 695" fill="none" xmlns="http://www.w3.org/2000/svg">
<g style="mix-blend-mode:lighten">
<path d="M92.3933 648.722L91.4536 649.064L91.7956 650.004L92.7353 649.662L92.3933 648.722ZM170.707 600.744L171.637 601.11L171.637 601.11L170.707 600.744ZM136.641 507.15L137.118 506.271L137.118 506.271L136.641 507.15ZM45.8101 520.736L45.4681 519.796L44.5284 520.138L44.8704 521.078L45.8101 520.736ZM70.0044 690.712L69.0647 691.054L69.4067 691.993L70.3464 691.651L70.0044 690.712ZM1.66877 502.961L1.32675 502.021L0.387053 502.363L0.729073 503.303L1.66877 502.961ZM153.856 477.26L153.404 478.152L153.409 478.154L153.856 477.26ZM203.107 612.576L202.19 612.178L202.187 612.183L203.107 612.576ZM92.7353 649.662L133.894 634.681L133.21 632.802L92.0513 647.782L92.7353 649.662ZM133.894 634.681C152.89 627.767 165.533 616.594 171.637 601.11L169.776 600.377C163.929 615.209 151.801 626.035 133.21 632.802L133.894 634.681ZM171.637 601.11C177.726 585.666 177.078 567.959 169.837 548.064L167.957 548.748C175.081 568.32 175.639 585.505 169.776 600.377L171.637 601.11ZM169.837 548.064C162.596 528.169 151.71 514.189 137.118 506.271L136.165 508.029C150.215 515.653 160.834 529.176 167.957 548.748L169.837 548.064ZM137.118 506.271C122.489 498.334 105.623 497.901 86.6266 504.816L87.3107 506.695C105.902 499.928 122.151 500.426 136.165 508.029L137.118 506.271ZM86.6266 504.816L45.4681 519.796L46.1521 521.675L87.3107 506.695L86.6266 504.816ZM44.8704 521.078L91.4536 649.064L93.333 648.38L46.7498 520.394L44.8704 521.078ZM144.086 662.684L69.6624 689.772L70.3464 691.651L144.77 664.563L144.086 662.684ZM70.9441 690.37L2.60846 502.619L0.729073 503.303L69.0647 691.054L70.9441 690.37ZM2.01079 503.901L76.4344 476.813L75.7504 474.933L1.32675 502.021L2.01079 503.901ZM76.4344 476.813C105.366 466.283 130.991 466.776 153.404 478.152L154.309 476.368C131.298 464.689 105.08 464.258 75.7504 474.933L76.4344 476.813ZM153.409 478.154C176.047 489.481 192.368 508.805 202.35 536.23L204.23 535.546C194.101 507.717 177.467 487.956 154.304 476.365L153.409 478.154ZM202.35 536.23C212.332 563.655 212.25 588.95 202.19 612.178L204.025 612.973C214.319 589.206 214.358 563.375 204.23 535.546L202.35 536.23ZM202.187 612.183C192.33 635.304 173.017 652.154 144.086 662.684L144.77 664.563C174.1 653.888 193.907 636.706 204.027 612.968L202.187 612.183ZM412.721 565.973L413.063 566.913L414.002 566.571L413.66 565.631L412.721 565.973ZM273.176 616.763L272.237 617.105L272.579 618.045L273.518 617.703L273.176 616.763ZM204.841 429.013L204.499 428.073L203.559 428.415L203.901 429.355L204.841 429.013ZM341.566 379.249L342.506 378.907L342.164 377.967L341.224 378.309L341.566 379.249ZM352.032 408.003L352.374 408.943L353.313 408.601L352.971 407.661L352.032 408.003ZM248.29 445.762L247.948 444.823L247.008 445.165L247.35 446.104L248.29 445.762ZM264.912 491.431L263.972 491.773L264.314 492.713L265.254 492.371L264.912 491.431ZM355.122 458.597L356.062 458.255L355.72 457.316L354.78 457.658L355.122 458.597ZM365.588 487.352L365.93 488.292L366.87 487.95L366.528 487.01L365.588 487.352ZM275.378 520.186L275.036 519.246L274.096 519.588L274.438 520.528L275.378 520.186ZM295.694 576.004L294.754 576.346L295.096 577.285L296.036 576.943L295.694 576.004ZM402.255 537.219L403.194 536.877L402.852 535.937L401.913 536.279L402.255 537.219ZM412.379 565.033L272.834 615.823L273.518 617.703L413.063 566.913L412.379 565.033ZM274.116 616.421L205.78 428.671L203.901 429.355L272.237 617.105L274.116 616.421ZM205.183 429.952L341.908 380.188L341.224 378.309L204.499 428.073L205.183 429.952ZM340.626 379.591L351.092 408.345L352.971 407.661L342.506 378.907L340.626 379.591ZM351.69 407.063L247.948 444.823L248.632 446.702L352.374 408.943L351.69 407.063ZM247.35 446.104L263.972 491.773L265.851 491.089L249.229 445.42L247.35 446.104ZM265.254 492.371L355.464 459.537L354.78 457.658L264.57 490.492L265.254 492.371ZM354.183 458.939L364.648 487.694L366.528 487.01L356.062 458.255L354.183 458.939ZM365.246 486.412L275.036 519.246L275.72 521.126L365.93 488.292L365.246 486.412ZM274.438 520.528L294.754 576.346L296.633 575.662L276.317 519.844L274.438 520.528ZM296.036 576.943L402.597 538.158L401.913 536.279L295.352 575.064L296.036 576.943ZM401.315 537.561L411.781 566.315L413.66 565.631L403.194 536.877L401.315 537.561ZM526.739 347.607L527.547 348.197L528.156 347.364L527.303 346.782L526.739 347.607ZM507.985 373.269L507.439 374.107L508.233 374.625L508.793 373.859L507.985 373.269ZM426.815 382.7L426.031 382.08L426.022 382.09L426.815 382.7ZM429.721 412.61L429.052 413.354L429.083 413.381L429.115 413.406L429.721 412.61ZM437.437 417.144L437.062 418.071L437.111 418.091L437.161 418.105L437.437 417.144ZM460.889 417.547L460.96 418.545L460.969 418.544L460.977 418.543L460.889 417.547ZM475.549 415.723L475.689 416.713L475.694 416.713L475.549 415.723ZM505.178 412.921L505.197 413.921L505.209 413.92L505.221 413.92L505.178 412.921ZM530.476 414.887L530.293 415.87L530.302 415.872L530.312 415.873L530.476 414.887ZM552.675 425.004L553.338 424.256L553.338 424.256L552.675 425.004ZM562.231 496.87L561.371 496.359L561.371 496.359L562.231 496.87ZM461.848 539.472L461.702 540.462L461.712 540.463L461.848 539.472ZM418.808 520.339L418.038 519.701L417.409 520.459L418.158 521.099L418.808 520.339ZM439.664 495.189L440.291 494.41L439.523 493.793L438.894 494.551L439.664 495.189ZM531.676 486.601L530.863 486.019L530.863 486.019L531.676 486.601ZM528.488 453.282L527.836 454.041L527.865 454.066L527.896 454.088L528.488 453.282ZM520.284 448.287L519.954 449.231L519.954 449.231L520.284 448.287ZM507.443 447.214L507.47 448.214L507.481 448.213L507.443 447.214ZM494.09 448.243L494.194 449.238L494.223 449.235L494.253 449.23L494.09 448.243ZM477.354 450.504L477.207 449.514L477.198 449.516L477.354 450.504ZM455.594 452.996L455.536 451.998L455.536 451.998L455.594 452.996ZM417.3 447.779L416.877 448.685L416.889 448.691L416.901 448.696L417.3 447.779ZM402.867 437.069L402.132 437.748L402.141 437.757L402.867 437.069ZM396.44 372.046L395.594 371.514L395.594 371.514L396.44 372.046ZM440.78 340.371C472.847 328.699 501.27 331.423 526.175 348.433L527.303 346.782C501.792 329.358 472.68 326.632 440.096 338.491L440.78 340.371ZM525.932 347.017L507.178 372.679L508.793 373.859L527.547 348.197L525.932 347.017ZM508.532 372.432C490.657 360.766 470.818 358.915 449.127 366.811L449.811 368.69C470.969 360.989 490.141 362.818 507.439 374.107L508.532 372.432ZM449.127 366.811C438.863 370.546 431.133 375.619 426.031 382.08L427.6 383.319C432.405 377.235 439.777 372.342 449.811 368.69L449.127 366.811ZM426.022 382.09C421.025 388.596 420.095 396.105 423.14 404.47L425.019 403.786C422.181 395.988 423.075 389.211 427.609 383.309L426.022 382.09ZM423.14 404.47C424.424 407.998 426.394 410.966 429.052 413.354L430.389 411.866C427.989 409.71 426.198 407.024 425.019 403.786L423.14 404.47ZM429.115 413.406C431.819 415.463 434.468 417.024 437.062 418.071L437.811 416.217C435.415 415.25 432.92 413.788 430.326 411.814L429.115 413.406ZM437.161 418.105C439.925 418.899 443.884 419.202 448.973 419.063L448.918 417.064C443.891 417.201 440.178 416.891 437.713 416.183L437.161 418.105ZM448.973 419.063C454.036 418.925 458.034 418.752 460.96 418.545L460.818 416.55C457.935 416.754 453.97 416.926 448.918 417.064L448.973 419.063ZM460.977 418.543C464.098 418.267 469.006 417.656 475.689 416.713L475.41 414.733C468.731 415.675 463.866 416.279 460.801 416.551L460.977 418.543ZM475.694 416.713C487.391 415.004 497.223 414.076 505.197 413.921L505.158 411.921C497.071 412.078 487.15 413.018 475.405 414.734L475.694 416.713ZM505.221 413.92C513.098 413.579 521.455 414.227 530.293 415.87L530.658 413.904C521.691 412.237 513.182 411.574 505.134 411.922L505.221 413.92ZM530.312 415.873C538.985 417.313 546.205 420.615 552.012 425.753L553.338 424.256C547.215 418.838 539.636 415.394 530.639 413.9L530.312 415.873ZM552.012 425.753C557.827 430.898 562.403 437.989 565.71 447.077L567.59 446.393C564.194 437.063 559.453 429.667 553.338 424.256L552.012 425.753ZM565.71 447.077C572.041 464.47 570.59 480.867 561.371 496.359L563.09 497.382C572.624 481.359 574.119 464.333 567.59 446.393L565.71 447.077ZM561.371 496.359C552.146 511.862 536.307 523.758 513.714 531.982L514.398 533.861C537.285 525.531 553.563 513.392 563.09 497.382L561.371 496.359ZM513.714 531.982C495.612 538.57 478.373 540.724 461.983 538.482L461.712 540.463C478.472 542.756 496.039 540.543 514.398 533.861L513.714 531.982ZM461.994 538.483C445.524 536.053 431.355 529.749 419.458 519.579L418.158 521.099C430.36 531.529 444.884 537.98 461.702 540.462L461.994 538.483ZM419.578 520.977L440.434 495.827L438.894 494.551L418.038 519.701L419.578 520.977ZM439.038 495.969C458.296 511.449 480.741 514.505 506.213 505.234L505.529 503.354C480.634 512.416 458.94 509.401 440.291 494.41L439.038 495.969ZM506.213 505.234C518.175 500.88 526.972 494.884 532.489 487.184L530.863 486.019C525.653 493.291 517.248 499.089 505.529 503.354L506.213 505.234ZM532.489 487.184C538.044 479.43 539.2 471.019 535.94 462.063L534.061 462.747C537.095 471.082 536.034 478.801 530.863 486.019L532.489 487.184ZM535.94 462.063C534.448 457.962 532.169 454.747 529.08 452.476L527.896 454.088C530.617 456.088 532.681 458.954 534.061 462.747L535.94 462.063ZM529.139 452.524C526.285 450.074 523.444 448.333 520.615 447.343L519.954 449.231C522.491 450.118 525.119 451.708 527.836 454.041L529.139 452.524ZM520.615 447.343C517.744 446.338 513.303 445.99 507.405 446.215L507.481 448.213C513.339 447.99 517.459 448.357 519.954 449.231L520.615 447.343ZM507.416 446.214C501.709 446.37 497.205 446.715 493.927 447.257L494.253 449.23C497.399 448.71 501.798 448.369 507.47 448.214L507.416 446.214ZM493.986 447.249C490.682 447.594 485.084 448.35 477.207 449.514L477.5 451.493C485.377 450.329 490.937 449.578 494.194 449.238L493.986 447.249ZM477.198 449.516C468.968 450.813 461.748 451.64 455.536 451.998L455.651 453.995C461.947 453.632 469.234 452.796 477.509 451.491L477.198 449.516ZM455.536 451.998C449.347 452.355 442.724 452.129 435.665 451.317L435.436 453.304C442.594 454.127 449.333 454.359 455.651 453.995L455.536 451.998ZM435.665 451.317C428.627 450.507 422.645 449.016 417.699 446.862L416.901 448.696C422.072 450.948 428.257 452.477 435.436 453.304L435.665 451.317ZM417.723 446.873C412.726 444.543 408.015 441.054 403.593 436.382L402.141 437.757C406.709 442.583 411.62 446.234 416.877 448.685L417.723 446.873ZM403.601 436.391C399.139 431.563 395.622 425.643 393.062 418.61L391.182 419.294C393.821 426.544 397.468 432.702 402.132 437.748L403.601 436.391ZM393.062 418.61C387.004 401.965 388.427 386.655 397.286 372.579L395.594 371.514C386.383 386.149 384.928 402.11 391.182 419.294L393.062 418.61ZM397.286 372.579C406.174 358.457 420.634 347.703 440.78 340.371L440.096 338.491C419.648 345.934 404.776 356.924 395.594 371.514L397.286 372.579ZM654.683 477.906L655.025 478.846L655.965 478.504L655.623 477.564L654.683 477.906ZM621.982 489.808L621.042 490.15L621.384 491.09L622.324 490.748L621.982 489.808ZM553.646 302.058L553.304 301.118L552.365 301.46L552.707 302.4L553.646 302.058ZM586.348 290.155L587.287 289.813L586.945 288.874L586.006 289.216L586.348 290.155ZM654.341 476.966L621.64 488.868L622.324 490.748L655.025 478.846L654.341 476.966ZM622.922 489.466L554.586 301.716L552.707 302.4L621.042 490.15L622.922 489.466ZM553.988 302.997L586.69 291.095L586.006 289.216L553.304 301.118L553.988 302.997ZM585.408 290.497L653.744 478.248L655.623 477.564L587.287 289.813L585.408 290.497ZM804.8 252.467L805.579 253.095L806.227 252.29L805.401 251.668L804.8 252.467ZM783.688 278.668L783.057 279.444L783.836 280.078L784.467 279.296L783.688 278.668ZM688.041 303.584L688.982 303.923L688.982 303.923L688.041 303.584ZM724.338 402.431L724.827 401.558L724.338 402.431ZM807.324 379.569L808.175 380.094L808.181 380.084L807.324 379.569ZM812.233 340.43L813.201 340.178L812.924 339.114L811.891 339.49L812.233 340.43ZM760.362 359.309L759.422 359.651L759.764 360.591L760.704 360.249L760.362 359.309ZM749.896 330.555L749.554 329.615L748.615 329.957L748.957 330.897L749.896 330.555ZM834.187 299.876L835.032 299.342L834.602 298.66L833.845 298.936L834.187 299.876ZM840.235 385.788L839.317 385.392L839.317 385.392L840.235 385.788ZM707.02 432.039L706.564 432.929L706.574 432.934L707.02 432.039ZM655.82 291.367L654.905 290.964L654.903 290.97L655.82 291.367ZM714.072 240.9C747.224 228.834 777.223 232.967 804.199 253.266L805.401 251.668C777.857 230.941 747.143 226.735 713.388 239.021L714.072 240.9ZM804.021 251.84L782.909 278.041L784.467 279.296L805.579 253.095L804.021 251.84ZM784.319 277.892C766.496 263.396 746.267 260.257 723.777 268.442L724.461 270.321C746.325 262.364 765.809 265.415 783.057 279.444L784.319 277.892ZM723.777 268.442C705.309 275.164 693.037 286.761 687.101 303.245L688.982 303.923C694.69 288.074 706.47 276.87 724.461 270.321L723.777 268.442ZM687.101 303.245C681.181 319.683 682.004 338.162 689.45 358.621L691.33 357.937C684.001 337.802 683.258 319.817 688.982 303.923L687.101 303.245ZM689.45 358.621C697.168 379.825 708.613 394.769 723.849 403.303L724.827 401.558C710.122 393.322 698.934 378.831 691.33 357.937L689.45 358.621ZM723.849 403.303C739.112 411.852 756.115 412.681 774.763 405.893L774.079 404.014C755.891 410.634 739.506 409.78 724.827 401.558L723.849 403.303ZM774.763 405.893C789.785 400.426 800.95 391.836 808.175 380.093L806.472 379.045C799.522 390.341 788.752 398.673 774.079 404.014L774.763 405.893ZM808.181 380.084C815.352 368.125 817.008 354.798 813.201 340.178L811.265 340.682C814.951 354.834 813.334 367.6 806.466 379.055L808.181 380.084ZM811.891 339.49L760.02 358.37L760.704 360.249L812.575 341.37L811.891 339.49ZM761.302 358.967L750.836 330.213L748.957 330.897L759.422 359.651L761.302 358.967ZM750.238 331.494L834.529 300.815L833.845 298.936L749.554 329.615L750.238 331.494ZM833.341 300.409C835.806 304.314 838.094 309.149 840.197 314.928L842.077 314.244C839.939 308.37 837.593 303.398 835.032 299.342L833.341 300.409ZM840.197 314.928C849.216 339.706 848.906 363.175 839.317 385.392L841.153 386.184C850.963 363.456 851.253 339.456 842.077 314.244L840.197 314.928ZM839.317 385.392C829.748 407.563 811.421 423.625 784.186 433.537L784.87 435.417C812.514 425.355 831.325 408.958 841.153 386.184L839.317 385.392ZM784.186 433.537C756.406 443.649 730.858 442.823 707.467 431.145L706.574 432.934C730.521 444.89 756.646 445.69 784.87 435.417L784.186 433.537ZM707.477 431.15C684.186 419.209 667.331 399.012 656.937 370.455L655.057 371.139C665.595 400.091 682.755 420.723 706.564 432.929L707.477 431.15ZM656.937 370.455C646.474 341.708 646.441 315.5 656.737 291.765L654.903 290.97C644.367 315.256 644.452 342.002 655.057 371.139L656.937 370.455ZM656.735 291.771C667.214 267.975 686.288 251.013 714.072 240.9L713.388 239.021C685.166 249.293 665.634 266.602 654.905 290.964L656.735 291.771ZM1064.27 328.829L1064.61 329.769L1065.55 329.427L1065.21 328.487L1064.27 328.829ZM1024.8 343.194L1024.18 343.974L1024.61 344.326L1025.14 344.133L1024.8 343.194ZM883.62 229.845L884.246 229.065L881.457 226.826L882.68 230.187L883.62 229.845ZM936.565 375.309L936.907 376.249L937.846 375.907L937.504 374.967L936.565 375.309ZM904.991 386.801L904.051 387.143L904.393 388.083L905.333 387.741L904.991 386.801ZM836.655 199.051L836.313 198.111L835.374 198.453L835.716 199.393L836.655 199.051ZM878.378 183.865L879.005 183.086L878.565 182.733L878.036 182.925L878.378 183.865ZM1016.07 294.652L1015.45 295.431L1018.24 297.678L1017.01 294.31L1016.07 294.652ZM964.36 152.57L964.018 151.631L963.078 151.973L963.42 152.912L964.36 152.57ZM995.933 141.078L996.873 140.736L996.531 139.797L995.591 140.139L995.933 141.078ZM1063.93 327.889L1024.46 342.254L1025.14 344.133L1064.61 329.769L1063.93 327.889ZM1025.43 342.414L884.246 229.065L882.994 230.625L1024.18 343.974L1025.43 342.414ZM882.68 230.187L935.625 375.651L937.504 374.967L884.56 229.503L882.68 230.187ZM936.223 374.37L904.649 385.862L905.333 387.741L936.907 376.249L936.223 374.37ZM905.931 386.459L837.595 198.709L835.716 199.393L904.051 387.143L905.931 386.459ZM836.997 199.99L878.72 184.805L878.036 182.925L836.313 198.111L836.997 199.99ZM877.751 184.644L1015.45 295.431L1016.7 293.873L879.005 183.086L877.751 184.644ZM1017.01 294.31L965.299 152.228L963.42 152.912L1015.13 294.994L1017.01 294.31ZM964.702 153.51L996.275 142.018L995.591 140.139L964.018 151.631L964.702 153.51ZM994.994 141.42L1063.33 329.171L1065.21 328.487L996.873 140.736L994.994 141.42ZM1250.74 260.961L1251.08 261.9L1252.02 261.558L1251.68 260.619L1250.74 260.961ZM1111.19 311.751L1110.25 312.093L1110.59 313.032L1111.53 312.69L1111.19 311.751ZM1042.86 124L1042.51 123.06L1041.57 123.402L1041.92 124.342L1042.86 124ZM1179.58 74.2361L1180.52 73.8941L1180.18 72.9544L1179.24 73.2964L1179.58 74.2361ZM1190.05 102.991L1190.39 103.93L1191.33 103.588L1190.99 102.649L1190.05 102.991ZM1086.3 140.75L1085.96 139.81L1085.02 140.152L1085.36 141.092L1086.3 140.75ZM1102.93 186.419L1101.99 186.761L1102.33 187.7L1103.27 187.358L1102.93 186.419ZM1193.14 153.585L1194.08 153.243L1193.73 152.303L1192.8 152.645L1193.14 153.585ZM1203.6 182.339L1203.95 183.279L1204.88 182.937L1204.54 181.997L1203.6 182.339ZM1113.39 215.173L1113.05 214.234L1112.11 214.576L1112.45 215.515L1113.39 215.173ZM1133.71 270.991L1132.77 271.333L1133.11 272.273L1134.05 271.931L1133.71 270.991ZM1240.27 232.206L1241.21 231.864L1240.87 230.924L1239.93 231.266L1240.27 232.206ZM1250.39 260.021L1110.85 310.811L1111.53 312.69L1251.08 261.9L1250.39 260.021ZM1112.13 311.409L1043.8 123.658L1041.92 124.342L1110.25 312.093L1112.13 311.409ZM1043.2 124.94L1179.92 75.1758L1179.24 73.2964L1042.51 123.06L1043.2 124.94ZM1178.64 74.5781L1189.11 103.333L1190.99 102.649L1180.52 73.8941L1178.64 74.5781ZM1189.7 102.051L1085.96 139.81L1086.65 141.689L1190.39 103.93L1189.7 102.051ZM1085.36 141.092L1101.99 186.761L1103.87 186.077L1087.24 140.408L1085.36 141.092ZM1103.27 187.358L1193.48 154.525L1192.8 152.645L1102.58 185.479L1103.27 187.358ZM1192.2 153.927L1202.66 182.681L1204.54 181.997L1194.08 153.243L1192.2 153.927ZM1203.26 181.4L1113.05 214.234L1113.73 216.113L1203.95 183.279L1203.26 181.4ZM1112.45 215.515L1132.77 271.333L1134.65 270.649L1114.33 214.831L1112.45 215.515ZM1134.05 271.931L1240.61 233.146L1239.93 231.266L1133.37 270.051L1134.05 271.931ZM1239.33 232.548L1249.8 261.303L1251.68 260.619L1241.21 231.864L1239.33 232.548ZM1441.33 191.589L1441.67 192.529L1443.26 191.953L1441.99 190.839L1441.33 191.589ZM1404.4 205.031L1403.73 205.771L1404.18 206.177L1404.74 205.97L1404.4 205.031ZM1340.46 146.893L1341.13 146.154L1340.69 145.747L1340.12 145.954L1340.46 146.893ZM1293.1 164.131L1292.76 163.192L1291.82 163.534L1292.16 164.473L1293.1 164.131ZM1319.27 236.018L1319.61 236.957L1320.55 236.615L1320.21 235.676L1319.27 236.018ZM1286.28 248.023L1285.34 248.365L1285.68 249.304L1286.62 248.962L1286.28 248.023ZM1217.95 60.272L1217.6 59.3324L1216.66 59.6744L1217.01 60.6141L1217.95 60.272ZM1356.09 27.5521L1355.72 28.4821L1355.72 28.4821L1356.09 27.5521ZM1389.84 99.2313L1388.89 98.9257L1388.88 98.938L1389.84 99.2313ZM1370.34 128.994L1369.69 128.237L1368.82 128.986L1369.68 129.744L1370.34 128.994ZM1338.51 58.2117L1338.14 59.1376L1338.14 59.1409L1338.15 59.1441L1338.51 58.2117ZM1261.4 77.0217L1261.05 76.082L1260.11 76.4241L1260.46 77.3638L1261.4 77.0217ZM1283.05 136.504L1282.11 136.846L1282.45 137.786L1283.39 137.444L1283.05 136.504ZM1354.31 101.625L1355.2 102.094L1355.2 102.092L1354.31 101.625ZM1440.99 190.65L1404.06 204.091L1404.74 205.97L1441.67 192.529L1440.99 190.65ZM1405.07 204.291L1341.13 146.154L1339.79 147.633L1403.73 205.771L1405.07 204.291ZM1340.12 145.954L1292.76 163.192L1293.44 165.071L1340.8 147.833L1340.12 145.954ZM1292.16 164.473L1318.33 236.36L1320.21 235.676L1294.04 163.789L1292.16 164.473ZM1318.92 235.078L1285.94 247.083L1286.62 248.962L1319.61 236.957L1318.92 235.078ZM1287.22 247.681L1218.89 59.93L1217.01 60.6141L1285.34 248.365L1287.22 247.681ZM1218.29 61.2117L1302.58 30.5325L1301.9 28.6531L1217.6 59.3324L1218.29 61.2117ZM1302.58 30.5325C1322.91 23.1333 1340.6 22.5017 1355.72 28.4821L1356.45 26.6222C1340.75 20.4115 1322.54 21.1403 1301.9 28.6531L1302.58 30.5325ZM1355.72 28.4821C1370.84 34.4614 1381.47 45.8279 1387.61 62.6911L1389.49 62.0071C1383.17 44.6654 1372.16 32.834 1356.45 26.6222L1355.72 28.4821ZM1387.61 62.6911C1392.19 75.2838 1392.6 87.3494 1388.89 98.9257L1390.79 99.5369C1394.65 87.4966 1394.2 74.974 1389.49 62.0071L1387.61 62.6911ZM1388.88 98.938C1385.34 110.496 1378.94 120.257 1369.69 128.237L1370.99 129.752C1380.53 121.528 1387.14 111.447 1390.79 99.5246L1388.88 98.938ZM1369.68 129.744L1440.67 192.339L1441.99 190.839L1371 128.244L1369.68 129.744ZM1356.37 76.2931C1352.94 66.8589 1347.11 60.4732 1338.87 57.2793L1338.15 59.1441C1345.77 62.0968 1351.23 67.9934 1354.5 76.9772L1356.37 76.2931ZM1338.89 57.2857C1330.62 53.9123 1321.47 54.0919 1311.52 57.7156L1312.2 59.5949C1321.79 56.1046 1330.41 55.9884 1338.14 59.1376L1338.89 57.2857ZM1311.52 57.7156L1261.05 76.082L1261.74 77.9614L1312.2 59.5949L1311.52 57.7156ZM1260.46 77.3638L1282.11 136.846L1283.99 136.162L1262.34 76.6797L1260.46 77.3638ZM1283.39 137.444L1334.41 118.872L1333.73 116.993L1282.7 135.565L1283.39 137.444ZM1334.41 118.872C1344.18 115.319 1351.15 109.741 1355.2 102.094L1353.43 101.157C1349.66 108.275 1343.13 113.569 1333.73 116.993L1334.41 118.872ZM1355.2 102.092C1359.38 94.1739 1359.74 85.5465 1356.37 76.2931L1354.5 76.9772C1357.69 85.7659 1357.31 93.7987 1353.43 101.159L1355.2 102.092Z" fill="#3C3C3C"/>
</g>
</svg>
