<svg width="1025" height="1033" viewBox="0 0 1025 1033" fill="none" xmlns="http://www.w3.org/2000/svg">
<rect x="252" y="324" width="20" height="20" fill="#52A5A9"/>
<rect x="239" y="370" width="20" height="20" fill="#52A5A9"/>
<rect x="239" y="409" width="20" height="20" fill="#52A5A9"/>
<rect x="239" y="448" width="20" height="20" fill="#52A5A9"/>
<rect x="239" y="526" width="20" height="20" fill="#52A5A9"/>
<rect x="239" y="487" width="20" height="20" fill="#52A5A9"/>
<rect x="239" y="604" width="20" height="20" fill="#52A5A9"/>
<rect x="239" y="643" width="20" height="20" fill="#52A5A9"/>
<rect x="250" y="686" width="20" height="20" fill="#52A5A9"/>
<rect x="239" y="565" width="20" height="20" fill="#52A5A9"/>
<rect x="327" y="253" width="20" height="20" fill="#52A5A9"/>
<rect x="283" y="331" width="20" height="20" fill="#52A5A9"/>
<rect x="283" y="370" width="20" height="20" fill="#52A5A9"/>
<rect x="283" y="409" width="20" height="20" fill="#52A5A9"/>
<rect x="371" y="253" width="20" height="20" fill="#52A5A9"/>
<rect x="283" y="292" width="20" height="20" fill="#52A5A9"/>
<rect x="283" y="526" width="20" height="20" fill="#52A5A9"/>
<rect x="283" y="448" width="20" height="20" fill="#52A5A9"/>
<rect x="283" y="604" width="20" height="20" fill="#52A5A9"/>
<rect x="283" y="643" width="20" height="20" fill="#52A5A9"/>
<rect x="283" y="682" width="20" height="20" fill="#52A5A9"/>
<rect x="283" y="487" width="20" height="20" fill="#52A5A9"/>
<rect x="283" y="565" width="20" height="20" fill="#52A5A9"/>
<rect x="283" y="721" width="20" height="20" fill="#52A5A9"/>
<rect x="415" y="253" width="20" height="20" fill="#52A5A9"/>
<rect x="327" y="331" width="20" height="20" fill="#52A5A9"/>
<rect x="327" y="370" width="20" height="20" fill="#52A5A9"/>
<rect x="327" y="409" width="20" height="20" fill="#52A5A9"/>
<rect x="459" y="253" width="20" height="20" fill="#52A5A9"/>
<rect x="327" y="526" width="20" height="20" fill="#52A5A9"/>
<rect x="327" y="292" width="20" height="20" fill="#52A5A9"/>
<rect x="327" y="604" width="20" height="20" fill="#52A5A9"/>
<rect x="327" y="643" width="20" height="20" fill="#52A5A9"/>
<rect x="327" y="682" width="20" height="20" fill="#52A5A9"/>
<rect x="327" y="448" width="20" height="20" fill="#52A5A9"/>
<rect x="327" y="760" width="20" height="20" fill="#52A5A9"/>
<rect x="327" y="487" width="20" height="20" fill="#52A5A9"/>
<rect x="327" y="565" width="20" height="20" fill="#52A5A9"/>
<rect x="327" y="721" width="20" height="20" fill="#52A5A9"/>
<rect x="371" y="331" width="20" height="20" fill="#52A5A9"/>
<rect x="503" y="253" width="20" height="20" fill="#52A5A9"/>
<rect x="371" y="370" width="20" height="20" fill="#52A5A9"/>
<rect x="371" y="409" width="20" height="20" fill="#52A5A9"/>
<rect x="371" y="233" width="20" height="20" fill="#52A5A9"/>
<rect x="547" y="253" width="20" height="20" fill="#52A5A9"/>
<rect x="371" y="526" width="20" height="20" fill="#52A5A9"/>
<rect x="371" y="292" width="20" height="20" fill="#52A5A9"/>
<rect x="371" y="604" width="20" height="20" fill="#52A5A9"/>
<rect x="371" y="643" width="20" height="20" fill="#52A5A9"/>
<rect x="371" y="682" width="20" height="20" fill="#52A5A9"/>
<rect x="415" y="331" width="20" height="20" fill="#52A5A9"/>
<rect x="371" y="760" width="20" height="20" fill="#52A5A9"/>
<rect x="371" y="448" width="20" height="20" fill="#52A5A9"/>
<rect x="371" y="487" width="20" height="20" fill="#52A5A9"/>
<rect x="371" y="565" width="20" height="20" fill="#52A5A9"/>
<rect x="371" y="721" width="20" height="20" fill="#52A5A9"/>
<rect x="367" y="786" width="20" height="20" fill="#52A5A9"/>
<rect x="415" y="370" width="20" height="20" fill="#52A5A9"/>
<rect x="415" y="409" width="20" height="20" fill="#52A5A9"/>
<rect x="591" y="253" width="20" height="20" fill="#52A5A9"/>
<rect x="415" y="214" width="20" height="20" fill="#52A5A9"/>
<rect x="415" y="526" width="20" height="20" fill="#52A5A9"/>
<rect x="635" y="253" width="20" height="20" fill="#52A5A9"/>
<rect x="415" y="604" width="20" height="20" fill="#52A5A9"/>
<rect x="415" y="643" width="20" height="20" fill="#52A5A9"/>
<rect x="415" y="682" width="20" height="20" fill="#52A5A9"/>
<rect x="459" y="331" width="20" height="20" fill="#52A5A9"/>
<rect x="415" y="760" width="20" height="20" fill="#52A5A9"/>
<rect x="415" y="292" width="20" height="20" fill="#52A5A9"/>
<rect x="415" y="448" width="20" height="20" fill="#52A5A9"/>
<rect x="415" y="487" width="20" height="20" fill="#52A5A9"/>
<rect x="415" y="565" width="20" height="20" fill="#52A5A9"/>
<rect x="415" y="721" width="20" height="20" fill="#52A5A9"/>
<rect x="415" y="799" width="20" height="20" fill="#52A5A9"/>
<rect x="459" y="370" width="20" height="20" fill="#52A5A9"/>
<rect x="679" y="254" width="20" height="20" fill="#52A5A9"/>
<rect x="459" y="409" width="20" height="20" fill="#52A5A9"/>
<rect x="459" y="214" width="20" height="20" fill="#52A5A9"/>
<rect x="503" y="331" width="20" height="20" fill="#52A5A9"/>
<rect x="459" y="526" width="20" height="20" fill="#52A5A9"/>
<rect x="459" y="604" width="20" height="20" fill="#52A5A9"/>
<rect x="459" y="643" width="20" height="20" fill="#52A5A9"/>
<rect x="459" y="682" width="20" height="20" fill="#52A5A9"/>
<rect x="459" y="292" width="20" height="20" fill="#52A5A9"/>
<rect x="459" y="760" width="20" height="20" fill="#52A5A9"/>
<rect x="547" y="331" width="20" height="20" fill="#52A5A9"/>
<rect x="503" y="370" width="20" height="20" fill="#52A5A9"/>
<rect x="459" y="448" width="20" height="20" fill="#52A5A9"/>
<rect x="459" y="487" width="20" height="20" fill="#52A5A9"/>
<rect x="459" y="565" width="20" height="20" fill="#52A5A9"/>
<rect x="459" y="721" width="20" height="20" fill="#52A5A9"/>
<rect x="459" y="799" width="20" height="20" fill="#52A5A9"/>
<rect x="503" y="409" width="20" height="20" fill="#52A5A9"/>
<rect x="591" y="331" width="20" height="20" fill="#52A5A9"/>
<rect x="503" y="214" width="20" height="20" fill="#52A5A9"/>
<rect x="547" y="370" width="20" height="20" fill="#52A5A9"/>
<rect x="503" y="526" width="20" height="20" fill="#52A5A9"/>
<rect x="503" y="604" width="20" height="20" fill="#52A5A9"/>
<rect x="503" y="643" width="20" height="20" fill="#52A5A9"/>
<rect x="503" y="682" width="20" height="20" fill="#52A5A9"/>
<rect x="635" y="331" width="20" height="20" fill="#52A5A9"/>
<rect x="503" y="760" width="20" height="20" fill="#52A5A9"/>
<rect x="503" y="292" width="20" height="20" fill="#52A5A9"/>
<rect x="547" y="409" width="20" height="20" fill="#52A5A9"/>
<rect x="591" y="370" width="20" height="20" fill="#52A5A9"/>
<rect x="503" y="448" width="20" height="20" fill="#52A5A9"/>
<rect x="503" y="487" width="20" height="20" fill="#52A5A9"/>
<rect x="503" y="565" width="20" height="20" fill="#52A5A9"/>
<rect x="503" y="721" width="20" height="20" fill="#52A5A9"/>
<rect x="503" y="799" width="20" height="20" fill="#52A5A9"/>
<rect x="679" y="331" width="20" height="20" fill="#52A5A9"/>
<rect x="547" y="526" width="20" height="20" fill="#52A5A9"/>
<rect x="547" y="214" width="20" height="20" fill="#52A5A9"/>
<rect x="547" y="604" width="20" height="20" fill="#52A5A9"/>
<rect x="547" y="643" width="20" height="20" fill="#52A5A9"/>
<rect x="547" y="682" width="20" height="20" fill="#52A5A9"/>
<rect x="635" y="370" width="20" height="20" fill="#52A5A9"/>
<rect x="547" y="760" width="20" height="20" fill="#52A5A9"/>
<rect x="591" y="409" width="20" height="20" fill="#52A5A9"/>
<rect x="547" y="292" width="20" height="20" fill="#52A5A9"/>
<rect x="723" y="331" width="20" height="20" fill="#52A5A9"/>
<rect x="679" y="370" width="20" height="20" fill="#52A5A9"/>
<rect x="547" y="448" width="20" height="20" fill="#52A5A9"/>
<rect x="547" y="487" width="20" height="20" fill="#52A5A9"/>
<rect x="547" y="565" width="20" height="20" fill="#52A5A9"/>
<rect x="547" y="721" width="20" height="20" fill="#52A5A9"/>
<rect x="547" y="799" width="20" height="20" fill="#52A5A9"/>
<rect x="635" y="409" width="20" height="20" fill="#52A5A9"/>
<rect x="591" y="526" width="20" height="20" fill="#52A5A9"/>
<rect x="591" y="214" width="20" height="20" fill="#52A5A9"/>
<rect x="723" y="370" width="20" height="20" fill="#52A5A9"/>
<rect x="591" y="604" width="20" height="20" fill="#52A5A9"/>
<rect x="591" y="643" width="20" height="20" fill="#52A5A9"/>
<rect x="591" y="682" width="20" height="20" fill="#52A5A9"/>
<rect x="679" y="409" width="20" height="20" fill="#52A5A9"/>
<rect x="591" y="760" width="20" height="20" fill="#52A5A9"/>
<rect x="757" y="331" width="20" height="20" fill="#52A5A9"/>
<rect x="591" y="292" width="20" height="20" fill="#52A5A9"/>
<rect x="723" y="409" width="20" height="20" fill="#52A5A9"/>
<rect x="767" y="370" width="20" height="20" fill="#52A5A9"/>
<rect x="591" y="448" width="20" height="20" fill="#52A5A9"/>
<rect x="635" y="526" width="20" height="20" fill="#52A5A9"/>
<rect x="591" y="487" width="20" height="20" fill="#52A5A9"/>
<rect x="591" y="565" width="20" height="20" fill="#52A5A9"/>
<rect x="591" y="721" width="20" height="20" fill="#52A5A9"/>
<rect x="591" y="799" width="20" height="20" fill="#52A5A9"/>
<rect x="767" y="409" width="20" height="20" fill="#52A5A9"/>
<rect x="635" y="604" width="20" height="20" fill="#52A5A9"/>
<rect x="635" y="643" width="20" height="20" fill="#52A5A9"/>
<rect x="679" y="526" width="20" height="20" fill="#52A5A9"/>
<rect x="635" y="682" width="20" height="20" fill="#52A5A9"/>
<rect x="635" y="760" width="20" height="20" fill="#52A5A9"/>
<rect x="636" y="227" width="20" height="20" fill="#52A5A9"/>
<rect x="635" y="292" width="20" height="20" fill="#52A5A9"/>
<rect x="679" y="604" width="20" height="20" fill="#52A5A9"/>
<rect x="723" y="526" width="20" height="20" fill="#52A5A9"/>
<rect x="635" y="448" width="20" height="20" fill="#52A5A9"/>
<rect x="679" y="643" width="20" height="20" fill="#52A5A9"/>
<rect x="635" y="487" width="20" height="20" fill="#52A5A9"/>
<rect x="679" y="682" width="20" height="20" fill="#52A5A9"/>
<rect x="635" y="565" width="20" height="20" fill="#52A5A9"/>
<rect x="635" y="721" width="20" height="20" fill="#52A5A9"/>
<rect x="679" y="760" width="20" height="20" fill="#52A5A9"/>
<rect x="723" y="604" width="20" height="20" fill="#52A5A9"/>
<rect x="767" y="526" width="20" height="20" fill="#52A5A9"/>
<rect x="679" y="292" width="20" height="20" fill="#52A5A9"/>
<rect x="723" y="643" width="20" height="20" fill="#52A5A9"/>
<rect x="679" y="448" width="20" height="20" fill="#52A5A9"/>
<rect x="679" y="487" width="20" height="20" fill="#52A5A9"/>
<rect x="723" y="682" width="20" height="20" fill="#52A5A9"/>
<rect x="679" y="565" width="20" height="20" fill="#52A5A9"/>
<rect x="767" y="604" width="20" height="20" fill="#52A5A9"/>
<rect x="679" y="721" width="20" height="20" fill="#52A5A9"/>
<rect x="767" y="643" width="20" height="20" fill="#52A5A9"/>
<rect x="754" y="688" width="20" height="20" fill="#52A5A9"/>
<rect x="723" y="292" width="20" height="20" fill="#52A5A9"/>
<rect x="723" y="448" width="20" height="20" fill="#52A5A9"/>
<rect x="723" y="487" width="20" height="20" fill="#52A5A9"/>
<rect x="723" y="565" width="20" height="20" fill="#52A5A9"/>
<rect x="723" y="721" width="20" height="20" fill="#52A5A9"/>
<rect x="767" y="448" width="20" height="20" fill="#52A5A9"/>
<rect x="767" y="487" width="20" height="20" fill="#52A5A9"/>
<rect x="767" y="565" width="20" height="20" fill="#52A5A9"/>
<rect x="640" y="784" width="20" height="20" fill="#52A5A9"/>
<rect x="799" y="409" width="20" height="20" fill="#52A5A9"/>
<rect x="795" y="468" width="20" height="20" fill="#52A5A9"/>
<rect x="805" y="516" width="20" height="20" fill="#52A5A9"/>
<rect x="795" y="585" width="20" height="20" fill="#52A5A9"/>
<rect x="211" y="419" width="20" height="20" fill="#52A5A9"/>
<rect x="201" y="487" width="20" height="20" fill="#52A5A9"/>
<rect x="201" y="545" width="20" height="20" fill="#52A5A9"/>
<rect x="211" y="603" width="20" height="20" fill="#52A5A9"/>
</svg>
