<svg width="1025" height="1033" viewBox="0 0 1025 1033" fill="none" xmlns="http://www.w3.org/2000/svg">
<rect x="195" y="214" width="20" height="20" fill="#52A5A9"/>
<rect x="195" y="253" width="20" height="20" fill="#52A5A9"/>
<rect x="195" y="292" width="20" height="20" fill="#52A5A9"/>
<rect x="195" y="331" width="20" height="20" fill="#52A5A9"/>
<rect x="195" y="370" width="20" height="20" fill="#52A5A9"/>
<rect x="195" y="409" width="20" height="20" fill="#52A5A9"/>
<rect x="195" y="448" width="20" height="20" fill="#52A5A9"/>
<rect x="195" y="487" width="20" height="20" fill="#52A5A9"/>
<rect x="195" y="526" width="20" height="20" fill="#52A5A9"/>
<rect x="195" y="565" width="20" height="20" fill="#52A5A9"/>
<rect x="195" y="604" width="20" height="20" fill="#52A5A9"/>
<rect x="195" y="643" width="20" height="20" fill="#52A5A9"/>
<rect x="195" y="682" width="20" height="20" fill="#52A5A9"/>
<rect x="195" y="721" width="20" height="20" fill="#52A5A9"/>
<rect x="195" y="760" width="20" height="20" fill="#52A5A9"/>
<rect x="195" y="799" width="20" height="20" fill="#52A5A9"/>
<rect x="239" y="253" width="20" height="20" fill="#52A5A9"/>
<rect x="239" y="214" width="20" height="20" fill="#52A5A9"/>
<rect x="283" y="253" width="20" height="20" fill="#52A5A9"/>
<rect x="239" y="331" width="20" height="20" fill="#52A5A9"/>
<rect x="239" y="370" width="20" height="20" fill="#52A5A9"/>
<rect x="239" y="409" width="20" height="20" fill="#52A5A9"/>
<rect x="239" y="292" width="20" height="20" fill="#52A5A9"/>
<rect x="239" y="448" width="20" height="20" fill="#52A5A9"/>
<rect x="239" y="526" width="20" height="20" fill="#52A5A9"/>
<rect x="239" y="487" width="20" height="20" fill="#52A5A9"/>
<rect x="239" y="604" width="20" height="20" fill="#52A5A9"/>
<rect x="239" y="643" width="20" height="20" fill="#52A5A9"/>
<rect x="239" y="682" width="20" height="20" fill="#52A5A9"/>
<rect x="239" y="565" width="20" height="20" fill="#52A5A9"/>
<rect x="239" y="760" width="20" height="20" fill="#52A5A9"/>
<rect x="239" y="721" width="20" height="20" fill="#52A5A9"/>
<rect x="239" y="799" width="20" height="20" fill="#52A5A9"/>
<rect x="327" y="253" width="20" height="20" fill="#52A5A9"/>
<rect x="283" y="214" width="20" height="20" fill="#52A5A9"/>
<rect x="283" y="331" width="20" height="20" fill="#52A5A9"/>
<rect x="283" y="370" width="20" height="20" fill="#52A5A9"/>
<rect x="283" y="409" width="20" height="20" fill="#52A5A9"/>
<rect x="371" y="253" width="20" height="20" fill="#52A5A9"/>
<rect x="283" y="292" width="20" height="20" fill="#52A5A9"/>
<rect x="283" y="526" width="20" height="20" fill="#52A5A9"/>
<rect x="283" y="448" width="20" height="20" fill="#52A5A9"/>
<rect x="283" y="604" width="20" height="20" fill="#52A5A9"/>
<rect x="283" y="643" width="20" height="20" fill="#52A5A9"/>
<rect x="283" y="682" width="20" height="20" fill="#52A5A9"/>
<rect x="283" y="487" width="20" height="20" fill="#52A5A9"/>
<rect x="283" y="760" width="20" height="20" fill="#52A5A9"/>
<rect x="283" y="565" width="20" height="20" fill="#52A5A9"/>
<rect x="283" y="721" width="20" height="20" fill="#52A5A9"/>
<rect x="283" y="799" width="20" height="20" fill="#52A5A9"/>
<rect x="415" y="253" width="20" height="20" fill="#52A5A9"/>
<rect x="327" y="331" width="20" height="20" fill="#52A5A9"/>
<rect x="327" y="370" width="20" height="20" fill="#52A5A9"/>
<rect x="327" y="409" width="20" height="20" fill="#52A5A9"/>
<rect x="327" y="214" width="20" height="20" fill="#52A5A9"/>
<rect x="459" y="253" width="20" height="20" fill="#52A5A9"/>
<rect x="327" y="526" width="20" height="20" fill="#52A5A9"/>
<rect x="327" y="292" width="20" height="20" fill="#52A5A9"/>
<rect x="327" y="604" width="20" height="20" fill="#52A5A9"/>
<rect x="327" y="643" width="20" height="20" fill="#52A5A9"/>
<rect x="327" y="682" width="20" height="20" fill="#52A5A9"/>
<rect x="327" y="448" width="20" height="20" fill="#52A5A9"/>
<rect x="327" y="760" width="20" height="20" fill="#52A5A9"/>
<rect x="327" y="487" width="20" height="20" fill="#52A5A9"/>
<rect x="327" y="565" width="20" height="20" fill="#52A5A9"/>
<rect x="327" y="721" width="20" height="20" fill="#52A5A9"/>
<rect x="327" y="799" width="20" height="20" fill="#52A5A9"/>
<rect x="371" y="331" width="20" height="20" fill="#52A5A9"/>
<rect x="503" y="253" width="20" height="20" fill="#52A5A9"/>
<rect x="371" y="370" width="20" height="20" fill="#52A5A9"/>
<rect x="371" y="409" width="20" height="20" fill="#52A5A9"/>
<rect x="371" y="214" width="20" height="20" fill="#52A5A9"/>
<rect x="547" y="253" width="20" height="20" fill="#52A5A9"/>
<rect x="371" y="526" width="20" height="20" fill="#52A5A9"/>
<rect x="371" y="292" width="20" height="20" fill="#52A5A9"/>
<rect x="371" y="604" width="20" height="20" fill="#52A5A9"/>
<rect x="371" y="643" width="20" height="20" fill="#52A5A9"/>
<rect x="371" y="682" width="20" height="20" fill="#52A5A9"/>
<rect x="415" y="331" width="20" height="20" fill="#52A5A9"/>
<rect x="371" y="760" width="20" height="20" fill="#52A5A9"/>
<rect x="371" y="448" width="20" height="20" fill="#52A5A9"/>
<rect x="371" y="487" width="20" height="20" fill="#52A5A9"/>
<rect x="371" y="565" width="20" height="20" fill="#52A5A9"/>
<rect x="371" y="721" width="20" height="20" fill="#52A5A9"/>
<rect x="371" y="799" width="20" height="20" fill="#52A5A9"/>
<rect x="415" y="370" width="20" height="20" fill="#52A5A9"/>
<rect x="415" y="409" width="20" height="20" fill="#52A5A9"/>
<rect x="591" y="253" width="20" height="20" fill="#52A5A9"/>
<rect x="415" y="214" width="20" height="20" fill="#52A5A9"/>
<rect x="415" y="526" width="20" height="20" fill="#52A5A9"/>
<rect x="635" y="253" width="20" height="20" fill="#52A5A9"/>
<rect x="415" y="604" width="20" height="20" fill="#52A5A9"/>
<rect x="415" y="643" width="20" height="20" fill="#52A5A9"/>
<rect x="415" y="682" width="20" height="20" fill="#52A5A9"/>
<rect x="459" y="331" width="20" height="20" fill="#52A5A9"/>
<rect x="415" y="760" width="20" height="20" fill="#52A5A9"/>
<rect x="415" y="292" width="20" height="20" fill="#52A5A9"/>
<rect x="415" y="448" width="20" height="20" fill="#52A5A9"/>
<rect x="415" y="487" width="20" height="20" fill="#52A5A9"/>
<rect x="415" y="565" width="20" height="20" fill="#52A5A9"/>
<rect x="415" y="721" width="20" height="20" fill="#52A5A9"/>
<rect x="415" y="799" width="20" height="20" fill="#52A5A9"/>
<rect x="459" y="370" width="20" height="20" fill="#52A5A9"/>
<rect x="679" y="253" width="20" height="20" fill="#52A5A9"/>
<rect x="459" y="409" width="20" height="20" fill="#52A5A9"/>
<rect x="459" y="214" width="20" height="20" fill="#52A5A9"/>
<rect x="503" y="331" width="20" height="20" fill="#52A5A9"/>
<rect x="459" y="526" width="20" height="20" fill="#52A5A9"/>
<rect x="723" y="253" width="20" height="20" fill="#52A5A9"/>
<rect x="459" y="604" width="20" height="20" fill="#52A5A9"/>
<rect x="459" y="643" width="20" height="20" fill="#52A5A9"/>
<rect x="459" y="682" width="20" height="20" fill="#52A5A9"/>
<rect x="459" y="292" width="20" height="20" fill="#52A5A9"/>
<rect x="459" y="760" width="20" height="20" fill="#52A5A9"/>
<rect x="547" y="331" width="20" height="20" fill="#52A5A9"/>
<rect x="503" y="370" width="20" height="20" fill="#52A5A9"/>
<rect x="459" y="448" width="20" height="20" fill="#52A5A9"/>
<rect x="459" y="487" width="20" height="20" fill="#52A5A9"/>
<rect x="459" y="565" width="20" height="20" fill="#52A5A9"/>
<rect x="459" y="721" width="20" height="20" fill="#52A5A9"/>
<rect x="459" y="799" width="20" height="20" fill="#52A5A9"/>
<rect x="767" y="253" width="20" height="20" fill="#52A5A9"/>
<rect x="503" y="409" width="20" height="20" fill="#52A5A9"/>
<rect x="591" y="331" width="20" height="20" fill="#52A5A9"/>
<rect x="503" y="214" width="20" height="20" fill="#52A5A9"/>
<rect x="547" y="370" width="20" height="20" fill="#52A5A9"/>
<rect x="503" y="526" width="20" height="20" fill="#52A5A9"/>
<rect x="811" y="253" width="20" height="20" fill="#52A5A9"/>
<rect x="503" y="604" width="20" height="20" fill="#52A5A9"/>
<rect x="503" y="643" width="20" height="20" fill="#52A5A9"/>
<rect x="503" y="682" width="20" height="20" fill="#52A5A9"/>
<rect x="635" y="331" width="20" height="20" fill="#52A5A9"/>
<rect x="503" y="760" width="20" height="20" fill="#52A5A9"/>
<rect x="503" y="292" width="20" height="20" fill="#52A5A9"/>
<rect x="547" y="409" width="20" height="20" fill="#52A5A9"/>
<rect x="591" y="370" width="20" height="20" fill="#52A5A9"/>
<rect x="503" y="448" width="20" height="20" fill="#52A5A9"/>
<rect x="503" y="487" width="20" height="20" fill="#52A5A9"/>
<rect x="503" y="565" width="20" height="20" fill="#52A5A9"/>
<rect x="503" y="721" width="20" height="20" fill="#52A5A9"/>
<rect x="503" y="799" width="20" height="20" fill="#52A5A9"/>
<rect x="679" y="331" width="20" height="20" fill="#52A5A9"/>
<rect x="547" y="526" width="20" height="20" fill="#52A5A9"/>
<rect x="547" y="214" width="20" height="20" fill="#52A5A9"/>
<rect x="547" y="604" width="20" height="20" fill="#52A5A9"/>
<rect x="547" y="643" width="20" height="20" fill="#52A5A9"/>
<rect x="547" y="682" width="20" height="20" fill="#52A5A9"/>
<rect x="635" y="370" width="20" height="20" fill="#52A5A9"/>
<rect x="547" y="760" width="20" height="20" fill="#52A5A9"/>
<rect x="591" y="409" width="20" height="20" fill="#52A5A9"/>
<rect x="547" y="292" width="20" height="20" fill="#52A5A9"/>
<rect x="723" y="331" width="20" height="20" fill="#52A5A9"/>
<rect x="679" y="370" width="20" height="20" fill="#52A5A9"/>
<rect x="547" y="448" width="20" height="20" fill="#52A5A9"/>
<rect x="547" y="487" width="20" height="20" fill="#52A5A9"/>
<rect x="547" y="565" width="20" height="20" fill="#52A5A9"/>
<rect x="547" y="721" width="20" height="20" fill="#52A5A9"/>
<rect x="547" y="799" width="20" height="20" fill="#52A5A9"/>
<rect x="635" y="409" width="20" height="20" fill="#52A5A9"/>
<rect x="591" y="526" width="20" height="20" fill="#52A5A9"/>
<rect x="591" y="214" width="20" height="20" fill="#52A5A9"/>
<rect x="723" y="370" width="20" height="20" fill="#52A5A9"/>
<rect x="591" y="604" width="20" height="20" fill="#52A5A9"/>
<rect x="591" y="643" width="20" height="20" fill="#52A5A9"/>
<rect x="591" y="682" width="20" height="20" fill="#52A5A9"/>
<rect x="679" y="409" width="20" height="20" fill="#52A5A9"/>
<rect x="591" y="760" width="20" height="20" fill="#52A5A9"/>
<rect x="767" y="331" width="20" height="20" fill="#52A5A9"/>
<rect x="591" y="292" width="20" height="20" fill="#52A5A9"/>
<rect x="723" y="409" width="20" height="20" fill="#52A5A9"/>
<rect x="767" y="370" width="20" height="20" fill="#52A5A9"/>
<rect x="591" y="448" width="20" height="20" fill="#52A5A9"/>
<rect x="635" y="526" width="20" height="20" fill="#52A5A9"/>
<rect x="591" y="487" width="20" height="20" fill="#52A5A9"/>
<rect x="591" y="565" width="20" height="20" fill="#52A5A9"/>
<rect x="591" y="721" width="20" height="20" fill="#52A5A9"/>
<rect x="591" y="799" width="20" height="20" fill="#52A5A9"/>
<rect x="767" y="409" width="20" height="20" fill="#52A5A9"/>
<rect x="635" y="604" width="20" height="20" fill="#52A5A9"/>
<rect x="811" y="331" width="20" height="20" fill="#52A5A9"/>
<rect x="635" y="643" width="20" height="20" fill="#52A5A9"/>
<rect x="679" y="526" width="20" height="20" fill="#52A5A9"/>
<rect x="635" y="682" width="20" height="20" fill="#52A5A9"/>
<rect x="811" y="370" width="20" height="20" fill="#52A5A9"/>
<rect x="811" y="409" width="20" height="20" fill="#52A5A9"/>
<rect x="635" y="760" width="20" height="20" fill="#52A5A9"/>
<rect x="635" y="214" width="20" height="20" fill="#52A5A9"/>
<rect x="635" y="292" width="20" height="20" fill="#52A5A9"/>
<rect x="679" y="604" width="20" height="20" fill="#52A5A9"/>
<rect x="723" y="526" width="20" height="20" fill="#52A5A9"/>
<rect x="635" y="448" width="20" height="20" fill="#52A5A9"/>
<rect x="679" y="643" width="20" height="20" fill="#52A5A9"/>
<rect x="635" y="487" width="20" height="20" fill="#52A5A9"/>
<rect x="679" y="682" width="20" height="20" fill="#52A5A9"/>
<rect x="635" y="565" width="20" height="20" fill="#52A5A9"/>
<rect x="635" y="721" width="20" height="20" fill="#52A5A9"/>
<rect x="635" y="799" width="20" height="20" fill="#52A5A9"/>
<rect x="679" y="760" width="20" height="20" fill="#52A5A9"/>
<rect x="679" y="214" width="20" height="20" fill="#52A5A9"/>
<rect x="723" y="604" width="20" height="20" fill="#52A5A9"/>
<rect x="767" y="526" width="20" height="20" fill="#52A5A9"/>
<rect x="679" y="292" width="20" height="20" fill="#52A5A9"/>
<rect x="723" y="643" width="20" height="20" fill="#52A5A9"/>
<rect x="679" y="448" width="20" height="20" fill="#52A5A9"/>
<rect x="679" y="487" width="20" height="20" fill="#52A5A9"/>
<rect x="723" y="682" width="20" height="20" fill="#52A5A9"/>
<rect x="679" y="565" width="20" height="20" fill="#52A5A9"/>
<rect x="767" y="604" width="20" height="20" fill="#52A5A9"/>
<rect x="679" y="721" width="20" height="20" fill="#52A5A9"/>
<rect x="679" y="799" width="20" height="20" fill="#52A5A9"/>
<rect x="723" y="760" width="20" height="20" fill="#52A5A9"/>
<rect x="767" y="643" width="20" height="20" fill="#52A5A9"/>
<rect x="811" y="526" width="20" height="20" fill="#52A5A9"/>
<rect x="767" y="682" width="20" height="20" fill="#52A5A9"/>
<rect x="723" y="214" width="20" height="20" fill="#52A5A9"/>
<rect x="723" y="292" width="20" height="20" fill="#52A5A9"/>
<rect x="723" y="448" width="20" height="20" fill="#52A5A9"/>
<rect x="767" y="760" width="20" height="20" fill="#52A5A9"/>
<rect x="811" y="604" width="20" height="20" fill="#52A5A9"/>
<rect x="811" y="643" width="20" height="20" fill="#52A5A9"/>
<rect x="811" y="682" width="20" height="20" fill="#52A5A9"/>
<rect x="723" y="487" width="20" height="20" fill="#52A5A9"/>
<rect x="723" y="565" width="20" height="20" fill="#52A5A9"/>
<rect x="723" y="721" width="20" height="20" fill="#52A5A9"/>
<rect x="811" y="760" width="20" height="20" fill="#52A5A9"/>
<rect x="723" y="799" width="20" height="20" fill="#52A5A9"/>
<rect x="767" y="214" width="20" height="20" fill="#52A5A9"/>
<rect x="767" y="292" width="20" height="20" fill="#52A5A9"/>
<rect x="767" y="448" width="20" height="20" fill="#52A5A9"/>
<rect x="767" y="487" width="20" height="20" fill="#52A5A9"/>
<rect x="767" y="565" width="20" height="20" fill="#52A5A9"/>
<rect x="767" y="721" width="20" height="20" fill="#52A5A9"/>
<rect x="767" y="799" width="20" height="20" fill="#52A5A9"/>
<rect x="811" y="214" width="20" height="20" fill="#52A5A9"/>
<rect x="811" y="292" width="20" height="20" fill="#52A5A9"/>
<rect x="811" y="448" width="20" height="20" fill="#52A5A9"/>
<rect x="811" y="487" width="20" height="20" fill="#52A5A9"/>
<rect x="811" y="565" width="20" height="20" fill="#52A5A9"/>
<rect x="811" y="721" width="20" height="20" fill="#52A5A9"/>
<rect x="811" y="799" width="20" height="20" fill="#52A5A9"/>
</svg>
