<svg id="visual" viewBox="0 0 900 600" width="900" height="600" xmlns="http://www.w3.org/2000/svg" xmlns:xlink="http://www.w3.org/1999/xlink" version="1.1"><g stroke-width="1" stroke-linejoin="bevel"><path d="M468 291L413 214L362 314Z" fill="#205a7a" stroke="#205a7a"></path><path d="M413 214L324 220L362 314Z" fill="#00101c" stroke="#00101c"></path><path d="M468 291L532 214L413 214Z" fill="#15384f" stroke="#15384f"></path><path d="M324 220L272 317L362 314Z" fill="#15384f" stroke="#15384f"></path><path d="M272 317L323 396L362 314Z" fill="#246688" stroke="#246688"></path><path d="M362 314L466 436L468 291Z" fill="#112e42" stroke="#112e42"></path><path d="M323 396L369 426L362 314Z" fill="#246688" stroke="#246688"></path><path d="M468 291L609 265L532 214Z" fill="#081a28" stroke="#081a28"></path><path d="M369 426L466 436L362 314Z" fill="#112e42" stroke="#112e42"></path><path d="M583 389L609 265L468 291Z" fill="#00101c" stroke="#00101c"></path><path d="M367 71L324 220L413 214Z" fill="#19435d" stroke="#19435d"></path><path d="M367 71L271 127L324 220Z" fill="#0c2435" stroke="#0c2435"></path><path d="M324 220L203 213L272 317Z" fill="#246688" stroke="#246688"></path><path d="M466 436L583 389L468 291Z" fill="#081a28" stroke="#081a28"></path><path d="M481 60L367 71L413 214Z" fill="#0c2435" stroke="#0c2435"></path><path d="M481 60L413 214L532 214Z" fill="#1d4e6b" stroke="#1d4e6b"></path><path d="M271 127L203 213L324 220Z" fill="#297ea6" stroke="#297ea6"></path><path d="M272 317L235 427L323 396Z" fill="#15384f" stroke="#15384f"></path><path d="M466 436L521 460L583 389Z" fill="#297ea6" stroke="#297ea6"></path><path d="M395 523L521 460L466 436Z" fill="#1d4e6b" stroke="#1d4e6b"></path><path d="M203 213L193 326L272 317Z" fill="#15384f" stroke="#15384f"></path><path d="M323 396L263 510L369 426Z" fill="#15384f" stroke="#15384f"></path><path d="M602 104L481 60L532 214Z" fill="#0c2435" stroke="#0c2435"></path><path d="M193 326L235 427L272 317Z" fill="#205a7a" stroke="#205a7a"></path><path d="M369 426L395 523L466 436Z" fill="#1d4e6b" stroke="#1d4e6b"></path><path d="M686 317L634 221L609 265Z" fill="#1d4e6b" stroke="#1d4e6b"></path><path d="M609 265L634 221L532 214Z" fill="#15384f" stroke="#15384f"></path><path d="M263 510L395 523L369 426Z" fill="#246688" stroke="#246688"></path><path d="M634 221L602 104L532 214Z" fill="#19435d" stroke="#19435d"></path><path d="M501 0L401 0L481 60Z" fill="#112e42" stroke="#112e42"></path><path d="M481 60L401 0L367 71Z" fill="#00101c" stroke="#00101c"></path><path d="M367 71L270 0L271 127Z" fill="#0c2435" stroke="#0c2435"></path><path d="M167 478L263 510L235 427Z" fill="#246688" stroke="#246688"></path><path d="M235 427L263 510L323 396Z" fill="#112e42" stroke="#112e42"></path><path d="M583 389L686 317L609 265Z" fill="#277297" stroke="#277297"></path><path d="M634 221L702 109L602 104Z" fill="#246688" stroke="#246688"></path><path d="M672 424L686 317L583 389Z" fill="#205a7a" stroke="#205a7a"></path><path d="M528 600L597 486L521 460Z" fill="#112e42" stroke="#112e42"></path><path d="M521 460L597 486L583 389Z" fill="#15384f" stroke="#15384f"></path><path d="M562 0L501 0L481 60Z" fill="#205a7a" stroke="#205a7a"></path><path d="M203 213L119 291L193 326Z" fill="#15384f" stroke="#15384f"></path><path d="M193 326L129 411L235 427Z" fill="#0c2435" stroke="#0c2435"></path><path d="M70 235L119 291L203 213Z" fill="#1d4e6b" stroke="#1d4e6b"></path><path d="M597 486L672 424L583 389Z" fill="#15384f" stroke="#15384f"></path><path d="M401 0L270 0L367 71Z" fill="#15384f" stroke="#15384f"></path><path d="M271 127L160 66L203 213Z" fill="#081a28" stroke="#081a28"></path><path d="M119 291L129 411L193 326Z" fill="#246688" stroke="#246688"></path><path d="M681 0L562 0L602 104Z" fill="#246688" stroke="#246688"></path><path d="M602 104L562 0L481 60Z" fill="#112e42" stroke="#112e42"></path><path d="M129 411L167 478L235 427Z" fill="#0c2435" stroke="#0c2435"></path><path d="M304 600L402 600L395 523Z" fill="#205a7a" stroke="#205a7a"></path><path d="M395 523L528 600L521 460Z" fill="#1d4e6b" stroke="#1d4e6b"></path><path d="M304 600L395 523L263 510Z" fill="#246688" stroke="#246688"></path><path d="M270 0L160 66L271 127Z" fill="#19435d" stroke="#19435d"></path><path d="M762 261L723 181L634 221Z" fill="#112e42" stroke="#112e42"></path><path d="M762 261L634 221L686 317Z" fill="#081a28" stroke="#081a28"></path><path d="M723 181L702 109L634 221Z" fill="#1d4e6b" stroke="#1d4e6b"></path><path d="M160 66L127 86L203 213Z" fill="#081a28" stroke="#081a28"></path><path d="M127 86L70 235L203 213Z" fill="#205a7a" stroke="#205a7a"></path><path d="M119 291L0 405L129 411Z" fill="#277297" stroke="#277297"></path><path d="M231 600L304 600L263 510Z" fill="#1d4e6b" stroke="#1d4e6b"></path><path d="M402 600L528 600L395 523Z" fill="#1d4e6b" stroke="#1d4e6b"></path><path d="M597 486L699 489L672 424Z" fill="#00101c" stroke="#00101c"></path><path d="M830 406L762 261L686 317Z" fill="#081a28" stroke="#081a28"></path><path d="M723 181L832 138L702 109Z" fill="#277297" stroke="#277297"></path><path d="M270 0L183 0L160 66Z" fill="#00101c" stroke="#00101c"></path><path d="M160 66L62 0L127 86Z" fill="#0c2435" stroke="#0c2435"></path><path d="M602 600L699 489L597 486Z" fill="#246688" stroke="#246688"></path><path d="M672 424L830 406L686 317Z" fill="#15384f" stroke="#15384f"></path><path d="M108 506L231 600L167 478Z" fill="#246688" stroke="#246688"></path><path d="M167 478L231 600L263 510Z" fill="#19435d" stroke="#19435d"></path><path d="M528 600L602 600L597 486Z" fill="#246688" stroke="#246688"></path><path d="M0 460L108 506L129 411Z" fill="#00101c" stroke="#00101c"></path><path d="M129 411L108 506L167 478Z" fill="#15384f" stroke="#15384f"></path><path d="M900 233L787 208L762 261Z" fill="#0c2435" stroke="#0c2435"></path><path d="M762 261L787 208L723 181Z" fill="#112e42" stroke="#112e42"></path><path d="M773 0L681 0L702 109Z" fill="#1d4e6b" stroke="#1d4e6b"></path><path d="M702 109L681 0L602 104Z" fill="#0c2435" stroke="#0c2435"></path><path d="M0 220L0 272L70 235Z" fill="#081a28" stroke="#081a28"></path><path d="M70 235L0 272L119 291Z" fill="#297ea6" stroke="#297ea6"></path><path d="M0 220L70 235L0 123Z" fill="#205a7a" stroke="#205a7a"></path><path d="M725 600L766 481L699 489Z" fill="#1d4e6b" stroke="#1d4e6b"></path><path d="M699 489L766 481L672 424Z" fill="#19435d" stroke="#19435d"></path><path d="M0 123L70 235L127 86Z" fill="#0c2435" stroke="#0c2435"></path><path d="M0 272L0 405L119 291Z" fill="#1d4e6b" stroke="#1d4e6b"></path><path d="M62 0L0 123L127 86Z" fill="#112e42" stroke="#112e42"></path><path d="M766 481L830 406L672 424Z" fill="#112e42" stroke="#112e42"></path><path d="M183 0L62 0L160 66Z" fill="#297ea6" stroke="#297ea6"></path><path d="M787 208L832 138L723 181Z" fill="#0c2435" stroke="#0c2435"></path><path d="M900 233L832 138L787 208Z" fill="#19435d" stroke="#19435d"></path><path d="M0 405L0 460L129 411Z" fill="#246688" stroke="#246688"></path><path d="M108 506L83 600L231 600Z" fill="#0c2435" stroke="#0c2435"></path><path d="M766 481L900 496L830 406Z" fill="#15384f" stroke="#15384f"></path><path d="M602 600L725 600L699 489Z" fill="#081a28" stroke="#081a28"></path><path d="M832 138L773 0L702 109Z" fill="#00101c" stroke="#00101c"></path><path d="M0 600L83 600L108 506Z" fill="#19435d" stroke="#19435d"></path><path d="M725 600L778 600L766 481Z" fill="#081a28" stroke="#081a28"></path><path d="M900 362L900 307L830 406Z" fill="#00101c" stroke="#00101c"></path><path d="M830 406L900 307L762 261Z" fill="#0c2435" stroke="#0c2435"></path><path d="M900 307L900 233L762 261Z" fill="#112e42" stroke="#112e42"></path><path d="M832 138L900 105L773 0Z" fill="#205a7a" stroke="#205a7a"></path><path d="M62 0L0 0L0 123Z" fill="#081a28" stroke="#081a28"></path><path d="M900 496L900 362L830 406Z" fill="#205a7a" stroke="#205a7a"></path><path d="M900 233L900 105L832 138Z" fill="#112e42" stroke="#112e42"></path><path d="M0 460L0 600L108 506Z" fill="#1d4e6b" stroke="#1d4e6b"></path><path d="M778 600L900 496L766 481Z" fill="#0c2435" stroke="#0c2435"></path><path d="M900 105L900 0L773 0Z" fill="#00101c" stroke="#00101c"></path><path d="M778 600L900 600L900 496Z" fill="#205a7a" stroke="#205a7a"></path></g></svg>