<svg width="613" height="107" viewBox="0 0 613 107" fill="none" xmlns="http://www.w3.org/2000/svg">
<path d="M81.44 41.928C81.44 51.816 78.128 59.736 71.504 65.688C64.976 71.544 56.096 74.472 44.864 74.472H23.408V105H0.368001V9.096H44.864C56.096 9.096 64.976 12.072 71.504 18.024C78.128 23.976 81.44 31.944 81.44 41.928ZM23.408 53.88H44.576C48.8 53.88 52.112 52.872 54.512 50.856C56.912 48.744 58.112 45.72 58.112 41.784C58.112 37.752 56.912 34.728 54.512 32.712C52.112 30.696 48.8 29.688 44.576 29.688H23.408V53.88ZM170.334 66.696C170.334 78.696 166.59 88.392 159.102 95.784C151.71 103.08 141.822 106.728 129.438 106.728C117.054 106.728 107.166 103.08 99.7741 95.784C92.3821 88.392 88.6861 78.696 88.6861 66.696C88.6861 54.6 92.3821 44.856 99.7741 37.464C107.166 30.072 117.054 26.376 129.438 26.376C141.822 26.376 151.71 30.072 159.102 37.464C166.59 44.856 170.334 54.6 170.334 66.696ZM142.254 82.392C145.326 78.36 146.862 73.08 146.862 66.552C146.862 60.024 145.326 54.792 142.254 50.856C139.278 46.824 135.006 44.808 129.438 44.808C123.966 44.808 119.694 46.824 116.622 50.856C113.55 54.792 112.014 60.024 112.014 66.552C112.014 73.08 113.55 78.36 116.622 82.392C119.694 86.328 123.966 88.296 129.438 88.296C135.006 88.296 139.278 86.328 142.254 82.392ZM236.41 28.968L230.65 51.144C227.962 49.608 225.082 48.84 222.01 48.84C217.402 48.84 213.562 50.616 210.49 54.168C207.514 57.624 206.026 62.184 206.026 67.848V105H183.994V28.104H206.026V39.624C208.426 35.688 211.402 32.568 214.954 30.264C218.602 27.864 222.442 26.664 226.474 26.664C230.506 26.664 233.818 27.432 236.41 28.968ZM290.372 84.12L298.58 99.96C292.628 104.472 285.524 106.728 277.268 106.728C266.996 106.728 259.7 103.512 255.38 97.08C252.404 92.76 250.916 86.856 250.916 79.368V44.808H238.82V28.104H250.916V9.096H273.092V28.104H294.98V44.808H273.092V79.512C273.092 84.888 275.732 87.576 281.012 87.576C284.372 87.576 287.492 86.424 290.372 84.12ZM356.238 2.18399L353.934 19.032C350.766 17.976 347.838 17.448 345.15 17.448C339.582 17.448 336.798 19.752 336.798 24.36V28.104H352.782V44.808H336.798V105H314.766V44.808H302.814V28.104H314.766V24.936C314.766 17.544 317.166 11.64 321.966 7.224C326.766 2.808 333.63 0.599997 342.558 0.599997C348.03 0.599997 352.59 1.128 356.238 2.18399ZM441.037 66.696C441.037 78.696 437.293 88.392 429.805 95.784C422.413 103.08 412.525 106.728 400.141 106.728C387.757 106.728 377.869 103.08 370.477 95.784C363.085 88.392 359.389 78.696 359.389 66.696C359.389 54.6 363.085 44.856 370.477 37.464C377.869 30.072 387.757 26.376 400.141 26.376C412.525 26.376 422.413 30.072 429.805 37.464C437.293 44.856 441.037 54.6 441.037 66.696ZM412.957 82.392C416.029 78.36 417.565 73.08 417.565 66.552C417.565 60.024 416.029 54.792 412.957 50.856C409.981 46.824 405.709 44.808 400.141 44.808C394.669 44.808 390.397 46.824 387.325 50.856C384.253 54.792 382.717 60.024 382.717 66.552C382.717 73.08 384.253 78.36 387.325 82.392C390.397 86.328 394.669 88.296 400.141 88.296C405.709 88.296 409.981 86.328 412.957 82.392ZM476.873 105H454.841V2.18399H476.873V105ZM517.229 105H495.197V28.104H517.229V105ZM517.229 18.6H495.197V2.18399H517.229V18.6ZM612.6 66.696C612.6 78.696 608.856 88.392 601.368 95.784C593.976 103.08 584.088 106.728 571.704 106.728C559.32 106.728 549.432 103.08 542.04 95.784C534.648 88.392 530.952 78.696 530.952 66.696C530.952 54.6 534.648 44.856 542.04 37.464C549.432 30.072 559.32 26.376 571.704 26.376C584.088 26.376 593.976 30.072 601.368 37.464C608.856 44.856 612.6 54.6 612.6 66.696ZM584.52 82.392C587.592 78.36 589.128 73.08 589.128 66.552C589.128 60.024 587.592 54.792 584.52 50.856C581.544 46.824 577.272 44.808 571.704 44.808C566.232 44.808 561.96 46.824 558.888 50.856C555.816 54.792 554.28 60.024 554.28 66.552C554.28 73.08 555.816 78.36 558.888 82.392C561.96 86.328 566.232 88.296 571.704 88.296C577.272 88.296 581.544 86.328 584.52 82.392Z" fill="#DCDDDD"/>
</svg>
