<svg width="610" height="105" viewBox="0 0 610 105" fill="none" xmlns="http://www.w3.org/2000/svg">
<path d="M42.784 5.368C61.12 5.368 74.656 11.848 83.392 24.808L66.256 35.464C60.784 27.784 52.816 23.944 42.352 23.944C38.128 23.944 34.768 24.712 32.272 26.248C29.776 27.784 28.528 30.04 28.528 33.016C28.528 34.168 28.72 35.224 29.104 36.184C29.488 37.048 30.256 37.816 31.408 38.488C32.56 39.16 33.52 39.736 34.288 40.216C35.056 40.6 36.448 41.032 38.464 41.512C40.576 41.992 42.064 42.328 42.928 42.52C43.792 42.616 45.52 42.904 48.112 43.384C52.528 44.152 56.416 45.016 59.776 45.976C63.136 46.84 66.496 48.04 69.856 49.576C73.216 51.112 75.952 52.888 78.064 54.904C80.176 56.92 81.904 59.464 83.248 62.536C84.592 65.608 85.264 69.064 85.264 72.904C85.264 82.216 81.664 89.848 74.464 95.8C67.36 101.752 57.52 104.728 44.944 104.728C34.576 104.728 25.504 102.616 17.728 98.392C10.048 94.168 4.288 88.264 0.448 80.68L18.448 71.176C24.208 81.064 33.376 86.008 45.952 86.008C51.04 86.008 55.072 85.144 58.048 83.416C61.12 81.592 62.656 79.144 62.656 76.072C62.656 74.728 62.416 73.576 61.936 72.616C61.552 71.56 60.784 70.648 59.632 69.88C58.48 69.112 57.472 68.536 56.608 68.152C55.744 67.672 54.256 67.192 52.144 66.712C50.032 66.136 48.448 65.752 47.392 65.56C46.432 65.368 44.56 65.032 41.776 64.552C37.456 63.784 33.664 62.968 30.4 62.104C27.136 61.144 23.872 59.896 20.608 58.36C17.344 56.824 14.656 55.048 12.544 53.032C10.528 50.92 8.848 48.328 7.504 45.256C6.256 42.184 5.632 38.68 5.632 34.744C5.632 25.72 8.992 18.568 15.712 13.288C22.528 8.008 31.552 5.368 42.784 5.368ZM173.64 63.688C173.64 64.648 173.496 66.856 173.208 70.312H117.912C118.296 75.4 120.216 79.288 123.672 81.976C127.128 84.664 131.688 86.008 137.352 86.008C145.992 86.008 153.048 82.984 158.52 76.936L172.632 90.184C162.936 99.88 150.744 104.728 136.056 104.728C122.712 104.728 112.392 101.032 105.096 93.64C97.8955 86.248 94.2955 76.696 94.2955 64.984C94.2955 53.08 97.8955 43.336 105.096 35.752C112.296 28.168 122.136 24.376 134.616 24.376C146.712 24.376 156.216 27.976 163.128 35.176C170.136 42.376 173.64 51.88 173.64 63.688ZM118.056 55.336H151.896C151.512 50.632 149.784 47.032 146.712 44.536C143.64 42.04 139.752 40.792 135.048 40.792C130.248 40.792 126.312 42.136 123.24 44.824C120.168 47.416 118.44 50.92 118.056 55.336ZM239.488 26.968L233.728 49.144C231.04 47.608 228.16 46.84 225.088 46.84C220.48 46.84 216.64 48.616 213.568 52.168C210.592 55.624 209.104 60.184 209.104 65.848V103H187.072V26.104H209.104V37.624C211.504 33.688 214.48 30.568 218.032 28.264C221.68 25.864 225.52 24.664 229.552 24.664C233.584 24.664 236.896 25.432 239.488 26.968ZM323.931 26.104L294.123 103H271.515L241.707 26.104H266.331L283.035 77.368L299.595 26.104H323.931ZM355.213 103H333.181V26.104H355.213V103ZM355.213 16.6H333.181V0.183993H355.213V16.6ZM426.536 75.496L442.52 86.152C435.032 98.536 423.704 104.728 408.536 104.728C396.536 104.728 386.888 100.984 379.592 93.496C372.392 85.912 368.792 76.312 368.792 64.696C368.792 52.984 372.392 43.336 379.592 35.752C386.888 28.168 396.44 24.376 408.248 24.376C423.608 24.376 435.032 30.904 442.52 43.96L425.528 54.04C421.88 46.744 416.504 43.096 409.4 43.096C404.024 43.096 399.752 45.112 396.584 49.144C393.512 53.08 391.976 58.216 391.976 64.552C391.976 70.984 393.56 76.168 396.728 80.104C399.992 84.04 404.408 86.008 409.976 86.008C416.6 86.008 422.12 82.504 426.536 75.496ZM528.296 63.688C528.296 64.648 528.152 66.856 527.864 70.312H472.568C472.952 75.4 474.872 79.288 478.328 81.976C481.784 84.664 486.344 86.008 492.008 86.008C500.648 86.008 507.704 82.984 513.176 76.936L527.288 90.184C517.592 99.88 505.4 104.728 490.712 104.728C477.368 104.728 467.048 101.032 459.752 93.64C452.552 86.248 448.952 76.696 448.952 64.984C448.952 53.08 452.552 43.336 459.752 35.752C466.952 28.168 476.792 24.376 489.272 24.376C501.368 24.376 510.872 27.976 517.784 35.176C524.792 42.376 528.296 51.88 528.296 63.688ZM472.712 55.336H506.552C506.168 50.632 504.44 47.032 501.368 44.536C498.296 42.04 494.408 40.792 489.704 40.792C484.904 40.792 480.968 42.136 477.896 44.824C474.824 47.416 473.096 50.92 472.712 55.336ZM609.264 78.52C609.264 86.488 606.096 92.872 599.76 97.672C593.424 102.376 584.832 104.728 573.984 104.728C555.744 104.728 542.784 98.488 535.104 86.008L550.08 76.072C552.768 80.008 556.368 82.936 560.88 84.856C565.488 86.776 570.288 87.736 575.28 87.736C579.216 87.736 582.24 87.16 584.352 86.008C586.56 84.856 587.664 83.32 587.664 81.4C587.664 80.056 587.28 78.952 586.512 78.088C585.84 77.224 584.592 76.504 582.768 75.928C581.04 75.352 579.408 74.92 577.872 74.632C576.432 74.344 574.224 74.008 571.248 73.624C561.072 72.28 553.248 69.784 547.776 66.136C542.304 62.488 539.568 56.776 539.568 49C539.568 41.032 542.592 34.936 548.64 30.712C554.784 26.488 562.56 24.376 571.968 24.376C580.032 24.376 587.184 25.768 593.424 28.552C599.664 31.336 604.704 34.792 608.544 38.92L595.44 50.584C589.392 44.344 581.568 41.224 571.968 41.224C568.8 41.224 566.112 41.752 563.904 42.808C561.792 43.864 560.736 45.256 560.736 46.984C560.736 49 561.84 50.44 564.048 51.304C566.256 52.072 569.808 52.84 574.704 53.608C575.184 53.608 575.52 53.656 575.712 53.752C576 53.752 576.336 53.8 576.72 53.896C577.104 53.896 577.44 53.944 577.728 54.04C587.904 55.768 595.68 58.456 601.056 62.104C606.528 65.656 609.264 71.128 609.264 78.52Z" fill="#DCDDDD"/>
</svg>
