<svg width="341" height="95" viewBox="0 0 341 95" fill="none" xmlns="http://www.w3.org/2000/svg">
<path d="M38.43 4.86C54.9833 4.86 67.2033 10.71 75.09 22.41L59.62 32.03C54.68 25.0967 47.4867 21.63 38.04 21.63C34.2267 21.63 31.1933 22.3233 28.94 23.71C26.6867 25.0967 25.56 27.1333 25.56 29.82C25.56 30.86 25.7333 31.8133 26.08 32.68C26.4267 33.46 27.12 34.1533 28.16 34.76C29.2 35.3667 30.0667 35.8867 30.76 36.32C31.4533 36.6667 32.71 37.0567 34.53 37.49C36.4367 37.9233 37.78 38.2267 38.56 38.4C39.34 38.4867 40.9 38.7467 43.24 39.18C47.2267 39.8733 50.7367 40.6533 53.77 41.52C56.8033 42.3 59.8367 43.3833 62.87 44.77C65.9033 46.1567 68.3733 47.76 70.28 49.58C72.1867 51.4 73.7467 53.6967 74.96 56.47C76.1733 59.2433 76.78 62.3633 76.78 65.83C76.78 74.2367 73.53 81.1267 67.03 86.5C60.6167 91.8733 51.7333 94.56 40.38 94.56C31.02 94.56 22.83 92.6533 15.81 88.84C8.87667 85.0267 3.67667 79.6967 0.21 72.85L16.46 64.27C21.66 73.1967 29.9367 77.66 41.29 77.66C45.8833 77.66 49.5233 76.88 52.21 75.32C54.9833 73.6733 56.37 71.4633 56.37 68.69C56.37 67.4767 56.1533 66.4367 55.72 65.57C55.3733 64.6167 54.68 63.7933 53.64 63.1C52.6 62.4067 51.69 61.8867 50.91 61.54C50.13 61.1067 48.7867 60.6733 46.88 60.24C44.9733 59.72 43.5433 59.3733 42.59 59.2C41.7233 59.0267 40.0333 58.7233 37.52 58.29C33.62 57.5967 30.1967 56.86 27.25 56.08C24.3033 55.2133 21.3567 54.0867 18.41 52.7C15.4633 51.3133 13.0367 49.71 11.13 47.89C9.31 45.9833 7.79333 43.6433 6.58 40.87C5.45333 38.0967 4.89 34.9333 4.89 31.38C4.89 23.2333 7.92333 16.7767 13.99 12.01C20.1433 7.24333 28.29 4.86 38.43 4.86ZM108.853 52.57L135.113 23.58H158.513L133.033 50.75L161.503 93H137.843L119.513 64.01L108.853 75.32V93H88.9634V0.179994H108.853V52.57ZM189.596 93H169.706V23.58H189.596V93ZM189.596 15H169.706V0.179994H189.596V15ZM226.034 93H206.144V0.179994H226.034V93ZM262.597 93H242.707V0.179994H262.597V93ZM340.109 70.9C340.109 78.0933 337.249 83.8567 331.529 88.19C325.809 92.4367 318.053 94.56 308.259 94.56C291.793 94.56 280.093 88.9267 273.159 77.66L286.679 68.69C289.106 72.2433 292.356 74.8867 296.429 76.62C300.589 78.3533 304.923 79.22 309.429 79.22C312.983 79.22 315.713 78.7 317.619 77.66C319.613 76.62 320.609 75.2333 320.609 73.5C320.609 72.2867 320.263 71.29 319.569 70.51C318.963 69.73 317.836 69.08 316.189 68.56C314.629 68.04 313.156 67.65 311.769 67.39C310.469 67.13 308.476 66.8267 305.789 66.48C296.603 65.2667 289.539 63.0133 284.599 59.72C279.659 56.4267 277.189 51.27 277.189 44.25C277.189 37.0567 279.919 31.5533 285.379 27.74C290.926 23.9267 297.946 22.02 306.439 22.02C313.719 22.02 320.176 23.2767 325.809 25.79C331.443 28.3033 335.993 31.4233 339.459 35.15L327.629 45.68C322.169 40.0467 315.106 37.23 306.439 37.23C303.579 37.23 301.153 37.7067 299.159 38.66C297.253 39.6133 296.299 40.87 296.299 42.43C296.299 44.25 297.296 45.55 299.289 46.33C301.283 47.0233 304.489 47.7167 308.909 48.41C309.343 48.41 309.646 48.4533 309.819 48.54C310.079 48.54 310.383 48.5833 310.729 48.67C311.076 48.67 311.379 48.7133 311.639 48.8C320.826 50.36 327.846 52.7867 332.699 56.08C337.639 59.2867 340.109 64.2267 340.109 70.9Z" fill="#DCDDDD"/>
</svg>
